# xmcd
#
# Track frame offsets:
#	182
#	21707
#	39342
#	59050
#	79952
#	100997
#	113862
#	126745
#	140357
#	154397
#
# Disc length: 2237 seconds
#
# Revision: 0
# Processed by: cddbd v1.4PL0 Copyright (c) Steve Scherf et al.
# Submitted via: dBpowerAMP V4.0
#
DISCID=9808bb0a
DTITLE=Various Artist - northern ontario recording artists
DYEAR=1993
DGENRE=Undefined
TTITLE0=time to say hello - dave sturgeon
TTITLE1=like a knife - kevin closs
TTITLE2=livin' a dream - lise chartrand
TTITLE3=north of the watershed - grievous angels
TTITLE4=it's time - jody bigelow
TTITLE5=vince gill, ricky scaggs and me - jim matt
TTITLE6=kick the tire - mike peters
TTITLE7=fragile - cimmerdown
TTITLE8=cadillac man - buckeye boys
TTITLE9=rolly played the fiddle - dale gilchrist
EXTD=
EXTT0=
EXTT1=
EXTT2=
EXTT3=
EXTT4=
EXTT5=
EXTT6=
EXTT7=
EXTT8=
EXTT9=
PLAYORDER=
